<svg xmlns="http://www.w3.org/2000/svg" width="1600" height="600" viewBox="0 0 1600 600" fill="none">
  <defs>
    <linearGradient id="g" x1="0" x2="1" y1="0" y2="1">
      <stop offset="0" stop-color="#7c3aed" />
      <stop offset="0.5" stop-color="#a855f7" />
      <stop offset="1" stop-color="#c084fc" />
    </linearGradient>
    <linearGradient id="hexGrad" x1="0" x2="1" y1="0" y2="0">
      <stop offset="0" stop-color="#8b5cf6" />
      <stop offset="1" stop-color="#7c3aed" />
    </linearGradient>
    <style>
      .title { font: 700 48px Inter, system-ui, -apple-system, "Segoe UI", Roboto, "Helvetica Neue", Arial; fill: white }
      .subtitle { font: 400 20px Inter, system-ui, -apple-system, "Segoe UI", Roboto, "Helvetica Neue", Arial; fill: rgba(255,255,255,0.95) }
    </style>
  </defs>
  <rect width="100%" height="100%" fill="url(#g)" rx="16" />
  <!-- hexagon motif -->
  <g transform="translate(1200,120) scale(1.2)" opacity="0.16">
    <polygon points="80,0 160,46 160,138 80,184 0,138 0,46" fill="url(#hexGrad)" opacity="0.18"/>
    <polygon points="80,40 140,72 140,112 80,144 20,112 20,72" fill="#ffffff" opacity="0.06"/>
  </g>
  <g transform="translate(120,160)">
    <text class="title">Hexagonal Architecture</text>
    <text x="0" y="62" class="subtitle">Ports &amp; Adapters — separating core business logic from infrastructure</text>
  </g>
  <!-- small icon cluster -->
  <g transform="translate(80,360)" opacity="0.95">
    <rect x="0" y="0" width="80" height="56" rx="8" fill="#ffffff" opacity="0.06"/>
    <rect x="96" y="0" width="80" height="56" rx="8" fill="#ffffff" opacity="0.04"/>
    <rect x="192" y="0" width="80" height="56" rx="8" fill="#ffffff" opacity="0.03"/>
    <g transform="translate(12,8)" fill="#ffffff">
      <rect x="0" y="0" width="56" height="40" rx="4" fill="#ffffff" opacity="0.04"/>
    </g>
  </g>
</svg>