<svg width="1200" height="400" viewBox="0 0 1200 400" fill="none" xmlns="http://www.w3.org/2000/svg">
  <rect width="1200" height="400" fill="#F5F7FA" />
  <!-- Ethics Banner: Green & Purple Theme -->
  <g>
    <!-- Scales of Justice -->
    <rect x="540" y="120" width="120" height="180" rx="60" fill="#9F7AEA" />
    <rect x="580" y="180" width="40" height="120" rx="20" fill="#68D391" />
    <rect x="600" y="120" width="8" height="60" fill="#6B46C1" />
    <circle cx="604" cy="120" r="16" fill="#68D391" />
    <!-- Left pan -->
    <ellipse cx="570" cy="260" rx="32" ry="16" fill="#9F7AEA" />
    <line x1="604" y1="140" x2="570" y2="260" stroke="#6B46C1" stroke-width="4" />
    <!-- Right pan -->
    <ellipse cx="638" cy="260" rx="32" ry="16" fill="#68D391" />
    <line x1="604" y1="140" x2="638" y2="260" stroke="#6B46C1" stroke-width="4" />
    <!-- AI circuit motif -->
    <rect x="200" y="220" width="80" height="40" rx="12" fill="#68D391" />
    <rect x="920" y="220" width="80" height="40" rx="12" fill="#9F7AEA" />
    <rect x="340" y="80" width="80" height="40" rx="12" fill="#6B46C1" />
    <rect x="780" y="80" width="80" height="40" rx="12" fill="#68D391" />
    <circle cx="240" cy="240" r="10" fill="#6B46C1" />
    <circle cx="960" cy="240" r="10" fill="#68D391" />
    <circle cx="380" cy="100" r="10" fill="#9F7AEA" />
    <circle cx="820" cy="100" r="10" fill="#9F7AEA" />
    <!-- Connecting lines -->
    <path d="M240 240 Q400 200 604 140" stroke="#6B46C1" stroke-width="3" fill="none" />
    <path d="M960 240 Q800 200 604 140" stroke="#68D391" stroke-width="3" fill="none" />
    <path d="M380 100 Q500 160 604 140" stroke="#9F7AEA" stroke-width="3" fill="none" />
    <path d="M820 100 Q700 160 604 140" stroke="#6B46C1" stroke-width="3" fill="none" />
  </g>
  <!-- Title -->
  <text x="600" y="60" text-anchor="middle" font-size="36" font-weight="bold" fill="#333">The Ethics of AI in Software Development</text>
  <text x="600" y="360" text-anchor="middle" font-size="22" fill="#68D391">Code Ownership • Bias • Security • Jobs • Responsibility</text>
</svg>
